# xmcd
#
# Track frame offsets: 
#        150
#        12305
#        23433
#        36021
#        47541
#        60372
#        74732
#        91268
#        106885
#        115904
#        126411
#        139825
#        150874
#        159603
#        170308
#
# Disc length: 2418 seconds
#
# Revision: 1
# Processed by: cddbd v1.5.2PL0 Copyright (c) Steve Scherf et al.
# Submitted via: ExactAudioCopy v0.99pb4
#
DISCID=b709700f
DTITLE=B.B. King - Quadromania Disk 1 von 4
DYEAR=2005
DGENRE=Blues
TTITLE0=Miss Martha King
TTITLE1=When Your Baby Packs Up And Goes
TTITLE2=Got The Blues
TTITLE3=Take A Swing With Me
TTITLE4=Mistreated Woman
TTITLE5=B.B. Boogie
TTITLE6=The Other Night Blues
TTITLE7=Walkin' And Cryin'
TTITLE8=My Baby's Gone
TTITLE9=Don't You Want A Man Like Me
TTITLE10=Questionnaire Blues
TTITLE11=B.B. Blues
TTITLE12=A New Way Of Driving
TTITLE13=Fine Looking Woman
TTITLE14=She's Dynamite
EXTD=
EXTT0=
EXTT1=
EXTT2=
EXTT3=
EXTT4=
EXTT5=
EXTT6=
EXTT7=
EXTT8=
EXTT9=
EXTT10=
EXTT11=
EXTT12=
EXTT13=
EXTT14=
PLAYORDER=
